<svg xmlns="http://www.w3.org/2000/svg" width="25.4" height="25.4" viewBox="0 0 25.4 25.4"><defs><style>.a{opacity:0.36;}.b{fill:none;}.c{fill:#2f545a;}</style></defs><g class="a"><path class="b" d="M0,0H25.4V25.4H0Z"/><path class="c" d="M17.4,13.467a12.686,12.686,0,0,0-4.763,1.058,12.484,12.484,0,0,0-4.762-1.058C5.583,13.467,1,14.61,1,16.906v2.91H24.283v-2.91C24.283,14.61,19.7,13.467,17.4,13.467Zm-4.233,4.763H2.587V16.906c0-.572,2.709-1.852,5.292-1.852s5.292,1.281,5.292,1.852Zm9.525,0H14.758V16.906a1.926,1.926,0,0,0-.55-1.291,10.21,10.21,0,0,1,3.2-.561c2.582,0,5.292,1.281,5.292,1.852ZM7.879,12.408a3.7,3.7,0,1,0-3.7-3.7A3.708,3.708,0,0,0,7.879,12.408Zm0-5.821A2.117,2.117,0,1,1,5.762,8.7,2.123,2.123,0,0,1,7.879,6.587ZM17.4,12.408a3.7,3.7,0,1,0-3.7-3.7A3.708,3.708,0,0,0,17.4,12.408Zm0-5.821A2.117,2.117,0,1,1,15.287,8.7,2.123,2.123,0,0,1,17.4,6.587Z" transform="translate(0.058 0.292)"/></g></svg>