<svg xmlns="http://www.w3.org/2000/svg" width="25.4" height="25.4" viewBox="0 0 25.4 25.4"><defs><style>.a{opacity:0.36;}.b{fill:#2f545a;}.c{fill:none;}</style></defs><g class="a" transform="translate(0)"><path class="b" d="M7.233,5.117H9.35V3H7.233Zm0,8.467H9.35V11.467H7.233Zm0,8.467H9.35V19.933H7.233Zm4.233-4.233h2.117V15.7H11.467Zm0,4.233h2.117V19.933H11.467ZM3,22.05H5.117V19.933H3Zm0-4.233H5.117V15.7H3Zm0-4.233H5.117V11.467H3ZM3,9.35H5.117V7.233H3ZM3,5.117H5.117V3H3Zm8.467,8.467h2.117V11.467H11.467Zm8.467,4.233H22.05V15.7H19.933Zm0-4.233H22.05V11.467H19.933Zm0,8.467H22.05V19.933H19.933Zm0-12.7H22.05V7.233H19.933Zm-8.467,0h2.117V7.233H11.467ZM19.933,3V5.117H22.05V3ZM11.467,5.117h2.117V3H11.467ZM15.7,22.05h2.117V19.933H15.7Zm0-8.467h2.117V11.467H15.7Zm0-8.467h2.117V3H15.7Z" transform="translate(0.175 0.175)"/><path class="c" d="M0,0H25.4V25.4H0Z"/></g></svg>