<svg xmlns="http://www.w3.org/2000/svg" width="24" height="24" viewBox="0 0 24 24"><defs><style>.a{opacity:0.36;}.b{fill:#2f545a;}.c{fill:none;}</style></defs><g class="a"><path class="b" d="M7,5H9V3H7Zm0,8H9V11H7Zm0,8H9V19H7Zm4-4h2V15H11Zm0,4h2V19H11ZM3,21H5V19H3Zm0-4H5V15H3Zm0-4H5V11H3ZM3,9H5V7H3ZM3,5H5V3H3Zm8,8h2V11H11Zm8,4h2V15H19Zm0-4h2V11H19Zm0,8h2V19H19ZM19,9h2V7H19ZM11,9h2V7H11Zm8-6V5h2V3ZM11,5h2V3H11Zm4,16h2V19H15Zm0-8h2V11H15Zm0-8h2V3H15Z"/><path class="c" d="M0,0H24V24H0Z"/></g></svg>